<svg width="79" height="102" viewBox="0 0 79 102" fill="none" xmlns="http://www.w3.org/2000/svg">
<path d="M54.0947 45.3482V23.1741C54.0947 10.8078 45.2356 1 33.4233 1C22.033 1 12.752 10.8078 12.752 23.1741V45.3482" stroke="url(#paint0_linear)" stroke-width="2"/>
<path d="M57.4664 34.8276H10C5.02944 34.8276 1 38.857 1 43.8276V85.8118C1 90.7824 5.02943 94.8118 10 94.8118H57.4664C62.4369 94.8118 66.4664 90.7824 66.4664 85.8118V43.8276C66.4664 38.857 62.4369 34.8276 57.4664 34.8276Z" fill="#FEF8EC" stroke="url(#paint1_linear)" stroke-width="2"/>
<path d="M14.0473 67.4045C15.4543 67.4045 16.5949 66.2575 16.5949 64.8425C16.5949 63.4276 15.4543 62.2806 14.0473 62.2806C12.6403 62.2806 11.4998 63.4276 11.4998 64.8425C11.4998 66.2575 12.6403 67.4045 14.0473 67.4045Z" fill="#E1B96B" stroke="url(#paint2_linear)" stroke-width="2"/>
<path d="M27.1002 67.4045C28.5072 67.4045 29.6478 66.2575 29.6478 64.8425C29.6478 63.4276 28.5072 62.2806 27.1002 62.2806C25.6933 62.2806 24.5527 63.4276 24.5527 64.8425C24.5527 66.2575 25.6933 67.4045 27.1002 67.4045Z" fill="#E1B96B" stroke="url(#paint3_linear)" stroke-width="2"/>
<path d="M40.153 67.4045C41.56 67.4045 42.7006 66.2575 42.7006 64.8425C42.7006 63.4276 41.56 62.2806 40.153 62.2806C38.746 62.2806 37.6054 63.4276 37.6054 64.8425C37.6054 66.2575 38.746 67.4045 40.153 67.4045Z" fill="#E1B96B" stroke="url(#paint4_linear)" stroke-width="2"/>
<path d="M53.2057 67.4045C54.6126 67.4045 55.7532 66.2575 55.7532 64.8425C55.7532 63.4276 54.6126 62.2806 53.2057 62.2806C51.7987 62.2806 50.6581 63.4276 50.6581 64.8425C50.6581 66.2575 51.7987 67.4045 53.2057 67.4045Z" fill="#E1B96B" stroke="url(#paint5_linear)" stroke-width="2"/>
<path d="M63.9987 101C71.7313 101 77.9998 94.696 77.9998 86.9197C77.9998 79.1434 71.7313 72.8394 63.9987 72.8394C56.266 72.8394 49.9975 79.1434 49.9975 86.9197C49.9975 94.696 56.266 101 63.9987 101Z" fill="#FEF8EC" stroke="url(#paint6_linear)" stroke-width="2" stroke-miterlimit="10"/>
<path d="M62.0306 91.8453C61.9305 91.8439 61.8349 91.8039 61.7648 91.7338L57.1091 87.177C57.0737 87.1423 57.0456 87.1012 57.0265 87.0559C57.0073 87.0106 56.9974 86.9621 56.9974 86.9131C56.9974 86.8141 57.0376 86.7192 57.1091 86.6492C57.1806 86.5792 57.2776 86.5399 57.3787 86.5399C57.4288 86.5399 57.4784 86.5495 57.5247 86.5683C57.5709 86.587 57.613 86.6145 57.6484 86.6492L62.0306 90.9384L71.0458 82.0997C71.0812 82.0651 71.1233 82.0376 71.1695 82.0188C71.2158 82.0001 71.2654 81.9904 71.3154 81.9904C71.3655 81.9904 71.4151 82.0001 71.4614 82.0188C71.5076 82.0376 71.5497 82.0651 71.5851 82.0997C71.6205 82.1344 71.6486 82.1755 71.6677 82.2208C71.6869 82.2661 71.6967 82.3146 71.6967 82.3636C71.6967 82.4126 71.6869 82.4612 71.6677 82.5064C71.6486 82.5517 71.6205 82.5929 71.5851 82.6275L62.2965 91.7338C62.2263 91.8039 62.1308 91.8439 62.0306 91.8453Z" fill="#E1B96B" stroke="url(#paint7_linear)"/>
<defs>
<linearGradient id="paint0_linear" x1="54.0947" y1="0.999999" x2="42.1177" y2="52.2155" gradientUnits="userSpaceOnUse">
<stop stop-color="#FFDA94"/>
<stop offset="1" stop-color="#967128"/>
</linearGradient>
<linearGradient id="paint1_linear" x1="66.4664" y1="34.8276" x2="52.4323" y2="105.085" gradientUnits="userSpaceOnUse">
<stop stop-color="#FFDA94"/>
<stop offset="1" stop-color="#967128"/>
</linearGradient>
<linearGradient id="paint2_linear" x1="16.5949" y1="62.2806" x2="15.2894" y2="68.2354" gradientUnits="userSpaceOnUse">
<stop stop-color="#FFDA94"/>
<stop offset="1" stop-color="#967128"/>
</linearGradient>
<linearGradient id="paint3_linear" x1="29.6478" y1="62.2806" x2="28.3423" y2="68.2354" gradientUnits="userSpaceOnUse">
<stop stop-color="#FFDA94"/>
<stop offset="1" stop-color="#967128"/>
</linearGradient>
<linearGradient id="paint4_linear" x1="42.7006" y1="62.2806" x2="41.395" y2="68.2354" gradientUnits="userSpaceOnUse">
<stop stop-color="#FFDA94"/>
<stop offset="1" stop-color="#967128"/>
</linearGradient>
<linearGradient id="paint5_linear" x1="55.7532" y1="62.2806" x2="54.4477" y2="68.2354" gradientUnits="userSpaceOnUse">
<stop stop-color="#FFDA94"/>
<stop offset="1" stop-color="#967128"/>
</linearGradient>
<linearGradient id="paint6_linear" x1="77.9998" y1="72.8394" x2="70.8249" y2="105.566" gradientUnits="userSpaceOnUse">
<stop stop-color="#FFDA94"/>
<stop offset="1" stop-color="#967128"/>
</linearGradient>
<linearGradient id="paint7_linear" x1="71.6967" y1="81.9904" x2="69.979" y2="93.7427" gradientUnits="userSpaceOnUse">
<stop stop-color="#FFDA94"/>
<stop offset="1" stop-color="#967128"/>
</linearGradient>
</defs>
</svg>
