<svg width="89" height="82" viewBox="0 0 89 82" fill="none" xmlns="http://www.w3.org/2000/svg">
<path d="M47.8287 1.96315C45.6869 0.67895 42.6883 0.67895 40.5465 1.96315L1 26.1754V60.8487L87.6667 64.8889V25.9349L47.8287 1.96315Z" stroke="url(#paint0_linear)" stroke-width="2" stroke-linejoin="round"/>
<path d="M80.8464 9H9.00011V71.0684H80.8464V9Z" fill="#FEF8EC" stroke="url(#paint1_linear)" stroke-width="2" stroke-linejoin="round"/>
<path d="M87.6667 26V81H1V26L44.3333 53.5L87.6667 26Z" fill="#FEF8EC" stroke="url(#paint2_linear)" stroke-width="2" stroke-linejoin="round"/>
<path d="M1 81L40.4499 50.6905C42.5709 48.8809 45.5402 48.8809 47.6612 50.6905L87.1111 81H1Z" fill="#FEF8EC" stroke="url(#paint3_linear)" stroke-width="2" stroke-linejoin="round"/>
<path d="M44 34C46.2091 34 48 32.2091 48 30C48 27.7909 46.2091 26 44 26C41.7909 26 40 27.7909 40 30C40 32.2091 41.7909 34 44 34Z" stroke="url(#paint4_linear)" stroke-width="2" stroke-linecap="round" stroke-linejoin="round"/>
<path d="M48 26V31C48 31.7957 48.3161 32.5587 48.8787 33.1213C49.4413 33.6839 50.2044 34 51 34C51.7956 34 52.5587 33.6839 53.1213 33.1213C53.6839 32.5587 54 31.7957 54 31V30C53.9999 27.743 53.2362 25.5525 51.8333 23.7845C50.4303 22.0166 48.4706 20.7752 46.2726 20.2623C44.0747 19.7494 41.7679 19.995 39.7273 20.9594C37.6868 21.9237 36.0324 23.55 35.0333 25.5737C34.0341 27.5975 33.749 29.8997 34.2242 32.1061C34.6994 34.3125 35.907 36.2932 37.6506 37.7263C39.3943 39.1593 41.5714 39.9604 43.8281 39.9992C46.0847 40.038 48.2881 39.3122 50.08 37.94" stroke="url(#paint5_linear)" stroke-width="2" stroke-linecap="round" stroke-linejoin="round"/>
<defs>
<linearGradient id="paint0_linear" x1="87.6667" y1="0.999999" x2="75.4755" y2="76.8579" gradientUnits="userSpaceOnUse">
<stop stop-color="#FFDA94"/>
<stop offset="1" stop-color="#967128"/>
</linearGradient>
<linearGradient id="paint1_linear" x1="80.8464" y1="9" x2="67.096" y2="82.01" gradientUnits="userSpaceOnUse">
<stop stop-color="#FFDA94"/>
<stop offset="1" stop-color="#967128"/>
</linearGradient>
<linearGradient id="paint2_linear" x1="87.6667" y1="26" x2="78.5726" y2="91.7322" gradientUnits="userSpaceOnUse">
<stop stop-color="#FFDA94"/>
<stop offset="1" stop-color="#967128"/>
</linearGradient>
<linearGradient id="paint3_linear" x1="87.1111" y1="49.3333" x2="84.0387" y2="87.6572" gradientUnits="userSpaceOnUse">
<stop stop-color="#FFDA94"/>
<stop offset="1" stop-color="#967128"/>
</linearGradient>
<linearGradient id="paint4_linear" x1="48" y1="26" x2="45.9721" y2="35.302" gradientUnits="userSpaceOnUse">
<stop stop-color="#FFDA94"/>
<stop offset="1" stop-color="#967128"/>
</linearGradient>
<linearGradient id="paint5_linear" x1="54" y1="20.0006" x2="48.9303" y2="43.2555" gradientUnits="userSpaceOnUse">
<stop stop-color="#FFDA94"/>
<stop offset="1" stop-color="#967128"/>
</linearGradient>
</defs>
</svg>
