<svg width="18" height="18" viewBox="0 0 18 18" fill="none" xmlns="http://www.w3.org/2000/svg">
<path d="M12.7504 11.2105C12.6295 11.3701 12.6461 11.6141 12.792 11.76L17.7863 16.7543C18.0712 17.0393 18.0712 17.5013 17.7863 17.7863C17.5013 18.0712 17.0393 18.0712 16.7543 17.7863L11.76 12.792C11.6161 12.6481 11.3696 12.6308 11.2088 12.7514C11.2088 12.7514 11.1485 12.8032 10.9635 12.9266C9.84449 13.673 8.50009 14.1081 7.05405 14.1081C3.15821 14.1081 0 10.9499 0 7.05405C0 3.15821 3.15821 0 7.05405 0C10.9499 0 14.1081 3.15821 14.1081 7.05405C14.1081 8.50578 13.6696 9.85508 12.9177 10.9767C12.7969 11.157 12.7504 11.2105 12.7504 11.2105ZM7.05405 12.6486C10.1439 12.6486 12.6486 10.1439 12.6486 7.05405C12.6486 3.96424 10.1439 1.45946 7.05405 1.45946C3.96424 1.45946 1.45946 3.96424 1.45946 7.05405C1.45946 10.1439 3.96424 12.6486 7.05405 12.6486Z" fill="#B6B6B6"/>
</svg>
