<svg width="40" height="40" viewBox="0 0 40 40" fill="none" xmlns="http://www.w3.org/2000/svg">
<path d="M20 22.4545C21.3556 22.4545 22.4545 21.3556 22.4545 20C22.4545 18.6444 21.3556 17.5454 20 17.5454C18.6444 17.5454 17.5455 18.6444 17.5455 20C17.5455 21.3556 18.6444 22.4545 20 22.4545Z" stroke="#505050" stroke-width="1.5" stroke-linecap="round" stroke-linejoin="round"/>
<path d="M26.0545 22.4545C25.9456 22.7013 25.9131 22.9751 25.9613 23.2405C26.0094 23.5059 26.1359 23.7508 26.3245 23.9436L26.3736 23.9927C26.5258 24.1447 26.6465 24.3252 26.7288 24.5238C26.8112 24.7225 26.8536 24.9354 26.8536 25.1505C26.8536 25.3655 26.8112 25.5784 26.7288 25.7771C26.6465 25.9757 26.5258 26.1562 26.3736 26.3082C26.2217 26.4603 26.0412 26.581 25.8425 26.6634C25.6439 26.7457 25.431 26.7881 25.2159 26.7881C25.0009 26.7881 24.7879 26.7457 24.5893 26.6634C24.3906 26.581 24.2102 26.4603 24.0582 26.3082L24.0091 26.2591C23.8163 26.0705 23.5714 25.9439 23.3059 25.8958C23.0405 25.8477 22.7668 25.8802 22.52 25.9891C22.278 26.0928 22.0716 26.265 21.9263 26.4845C21.7809 26.704 21.7029 26.9613 21.7018 27.2245V27.3636C21.7018 27.7976 21.5294 28.2138 21.2225 28.5207C20.9157 28.8276 20.4994 29 20.0655 29C19.6315 29 19.2152 28.8276 18.9084 28.5207C18.6015 28.2138 18.4291 27.7976 18.4291 27.3636V27.29C18.4228 27.0192 18.3351 26.7565 18.1775 26.5362C18.0199 26.3159 17.7997 26.1481 17.5455 26.0545C17.2987 25.9456 17.0249 25.9131 16.7595 25.9613C16.4941 26.0094 16.2492 26.1359 16.0564 26.3245L16.0073 26.3736C15.8553 26.5258 15.6748 26.6465 15.4762 26.7288C15.2775 26.8112 15.0646 26.8536 14.8495 26.8536C14.6345 26.8536 14.4216 26.8112 14.2229 26.7288C14.0243 26.6465 13.8438 26.5258 13.6918 26.3736C13.5397 26.2217 13.419 26.0412 13.3366 25.8425C13.2543 25.6439 13.2119 25.431 13.2119 25.2159C13.2119 25.0009 13.2543 24.7879 13.3366 24.5893C13.419 24.3906 13.5397 24.2102 13.6918 24.0582L13.7409 24.0091C13.9295 23.8163 14.0561 23.5714 14.1042 23.3059C14.1523 23.0405 14.1198 22.7668 14.0109 22.52C13.9072 22.278 13.735 22.0716 13.5155 21.9263C13.296 21.7809 13.0387 21.7029 12.7755 21.7018H12.6364C12.2024 21.7018 11.7862 21.5294 11.4793 21.2225C11.1724 20.9157 11 20.4994 11 20.0655C11 19.6315 11.1724 19.2152 11.4793 18.9084C11.7862 18.6015 12.2024 18.4291 12.6364 18.4291H12.71C12.9808 18.4228 13.2435 18.3351 13.4638 18.1775C13.6841 18.0199 13.8519 17.7997 13.9455 17.5455C14.0544 17.2987 14.0869 17.0249 14.0387 16.7595C13.9906 16.4941 13.8641 16.2492 13.6755 16.0564L13.6264 16.0073C13.4742 15.8553 13.3535 15.6748 13.2712 15.4762C13.1888 15.2775 13.1464 15.0646 13.1464 14.8495C13.1464 14.6345 13.1888 14.4216 13.2712 14.2229C13.3535 14.0243 13.4742 13.8438 13.6264 13.6918C13.7783 13.5397 13.9588 13.419 14.1575 13.3366C14.3561 13.2543 14.569 13.2119 14.7841 13.2119C14.9991 13.2119 15.2121 13.2543 15.4107 13.3366C15.6094 13.419 15.7898 13.5397 15.9418 13.6918L15.9909 13.7409C16.1837 13.9295 16.4286 14.0561 16.6941 14.1042C16.9595 14.1523 17.2332 14.1198 17.48 14.0109H17.5455C17.7874 13.9072 17.9938 13.735 18.1392 13.5155C18.2846 13.296 18.3626 13.0387 18.3636 12.7755V12.6364C18.3636 12.2024 18.536 11.7862 18.8429 11.4793C19.1498 11.1724 19.566 11 20 11C20.434 11 20.8502 11.1724 21.1571 11.4793C21.464 11.7862 21.6364 12.2024 21.6364 12.6364V12.71C21.6374 12.9733 21.7154 13.2305 21.8608 13.45C22.0062 13.6695 22.2126 13.8417 22.4545 13.9455C22.7013 14.0544 22.9751 14.0869 23.2405 14.0387C23.5059 13.9906 23.7508 13.8641 23.9436 13.6755L23.9927 13.6264C24.1447 13.4742 24.3252 13.3535 24.5238 13.2712C24.7225 13.1888 24.9354 13.1464 25.1505 13.1464C25.3655 13.1464 25.5784 13.1888 25.7771 13.2712C25.9757 13.3535 26.1562 13.4742 26.3082 13.6264C26.4603 13.7783 26.581 13.9588 26.6634 14.1575C26.7457 14.3561 26.7881 14.569 26.7881 14.7841C26.7881 14.9991 26.7457 15.2121 26.6634 15.4107C26.581 15.6094 26.4603 15.7898 26.3082 15.9418L26.2591 15.9909C26.0705 16.1837 25.9439 16.4286 25.8958 16.6941C25.8477 16.9595 25.8802 17.2332 25.9891 17.48V17.5455C26.0928 17.7874 26.265 17.9938 26.4845 18.1392C26.704 18.2846 26.9613 18.3626 27.2245 18.3636H27.3636C27.7976 18.3636 28.2138 18.536 28.5207 18.8429C28.8276 19.1498 29 19.566 29 20C29 20.434 28.8276 20.8502 28.5207 21.1571C28.2138 21.464 27.7976 21.6364 27.3636 21.6364H27.29C27.0267 21.6374 26.7695 21.7154 26.55 21.8608C26.3305 22.0062 26.1583 22.2126 26.0545 22.4545V22.4545Z" stroke="#505050" stroke-width="1.5" stroke-linecap="round" stroke-linejoin="round"/>
</svg>
