<svg width="62" height="62" viewBox="0 0 62 62" fill="none" xmlns="http://www.w3.org/2000/svg">
<circle cx="30.9991" cy="31" r="30.5" stroke="#FFFCFC"/>
<path fill-rule="evenodd" clip-rule="evenodd" d="M30.9989 56.4753C45.0685 56.4753 56.4741 45.0696 56.4741 31C56.4741 16.9304 45.0685 5.52478 30.9989 5.52478C16.9293 5.52478 5.52365 16.9304 5.52365 31C5.52365 45.0696 16.9293 56.4753 30.9989 56.4753ZM31.7987 23.6593C32.6716 23.6593 33.3686 24.3598 33.3686 25.2228V28.9027H34.4152V26.2715C34.4152 25.4032 35.1185 24.7079 35.9851 24.7079C36.858 24.7079 37.555 25.4074 37.555 26.2715V29.9513H38.6016V27.3359C38.6016 26.4655 39.3049 25.7566 40.1715 25.7566C41.0444 25.7566 41.7414 26.4634 41.7414 27.3359V35.7191C41.7414 40.0627 38.2269 43.5842 33.8919 43.5842C29.9567 43.5831 27.6228 41.4333 25.7777 38.3229C24.4816 36.138 23.3021 34.3282 22.3313 32.8386C20.2352 29.6225 19.112 27.8991 19.8895 27.1157C21.0523 25.9454 23.8886 28.4821 26.0425 30.7892V19.9983C26.0425 19.1143 26.7458 18.4159 27.6124 18.4159C28.4852 18.4159 29.1822 19.1248 29.1822 19.9983V29.9513H30.2288V25.2228C30.2288 24.3682 30.9322 23.6593 31.7987 23.6593Z" fill="white"/>
</svg>
