<svg width="98" height="98" viewBox="0 0 98 98" fill="none" xmlns="http://www.w3.org/2000/svg">
<path d="M49.1717 1L1 24.25V35.1673H7.62361V97H90.7198V35.1673H96.7412V24.25L49.1717 1Z" stroke="url(#paint0_linear)" stroke-miterlimit="10"/>
<path d="M39.2925 57.4019L37.0803 55.1825C36.0123 54.0728 35.402 52.5363 35.402 50.9145V42.5492C35.402 42.2931 35.2494 42.1224 35.0206 42.1224H34.9443V37.8544C35.1731 37.8544 35.402 37.5983 35.402 37.3423V35.7204C35.402 35.5497 35.3257 35.379 35.1731 35.379C34.1051 34.7815 33.0372 34.5254 31.9692 34.5254C30.9012 34.5254 29.8332 34.7815 28.7652 35.379C28.6126 35.4644 28.5363 35.6351 28.5363 35.7204V37.2569C28.5363 37.513 28.7652 37.7691 28.994 37.7691V42.0371H28.9178C28.6889 42.0371 28.5363 42.2078 28.5363 42.4639V50.7438C28.5363 52.3656 27.926 53.9021 26.8581 55.0118L24.6458 57.4019C22.7387 59.3651 21.7469 62.182 21.9758 65.0843L23.5015 81.9002C23.5778 82.6684 24.1118 83.2659 24.7984 83.2659H39.14C39.8265 83.2659 40.3605 82.6684 40.4368 81.9002L41.9625 65.0843C42.1914 62.182 41.1997 59.3651 39.2925 57.4019Z" stroke="url(#paint1_linear)" stroke-miterlimit="10"/>
<path d="M32.6166 77.7702C28.359 74.5652 26.6433 69.3477 26.8975 62.4904C28.8039 61.7451 30.7102 61.3724 32.6166 61.2979C34.5229 61.2979 36.4293 61.7451 38.3357 62.4904C38.6534 69.2732 36.9377 74.5652 32.6166 77.7702Z" stroke="url(#paint2_linear)" stroke-width="0.5" stroke-miterlimit="10"/>
<path d="M72.9346 54.0206C74.1691 55.0182 74.8549 56.7065 74.8549 58.3948L74.7863 58.8553V78.9612L74.9921 80.496C74.9921 82.4145 73.9634 83.7191 72.7289 83.7191H59.2183C57.9838 83.7191 56.9551 82.4145 56.9551 80.496L57.1608 78.9612V58.8553L56.9551 58.3948C56.9551 56.7065 57.7095 55.095 58.8754 54.0206L61.6872 51.4882C62.0987 51.1045 62.3045 50.4906 62.2359 49.8767C62.0987 49.0325 62.0301 48.0349 62.0301 47.114V45.5025C62.0301 44.2746 62.0987 43.1235 62.2359 41.9724V41.8189C62.3045 41.4352 62.3045 41.1283 62.373 40.7446V40.6678C62.5102 39.8237 62.6474 38.9796 62.8531 38.1354C62.9217 37.9052 62.7845 37.675 62.6474 37.5215C62.4416 37.368 62.373 37.1378 62.373 36.9076L62.6474 33.3008H69.2312L69.5055 36.9076C69.5055 37.1378 69.437 37.368 69.2312 37.5215C69.0255 37.675 68.9569 37.9052 69.0255 38.1354C69.0255 38.4424 69.0941 38.6726 69.1626 38.9796C69.2312 39.2865 69.2998 39.6702 69.3684 40.0539C69.437 40.2074 69.5055 40.4376 69.5055 40.6678V40.7446C69.5055 40.8981 69.5741 41.1283 69.5741 41.2818C69.5741 41.4352 69.6427 41.6655 69.6427 41.8189V41.9724C69.7113 42.4329 69.7799 42.8166 69.7799 43.277C69.8485 43.5072 69.8485 43.6607 69.8485 43.8909V44.5816V45.5025V47.114C69.7799 48.0349 69.7113 49.0325 69.6427 49.8767C69.5741 50.4906 69.7799 51.1045 70.1914 51.4882L72.9346 54.0206Z" stroke="url(#paint3_linear)" stroke-miterlimit="10"/>
<path d="M62.6478 33.2998H65.8026H68.9573C69.0945 33.2998 69.1631 33.2231 69.2317 33.1463C69.3002 33.0696 69.3688 32.9929 69.3688 32.8394V30.4604C69.3688 30.2302 69.1631 30 68.9573 30H65.8026H62.6478C62.4421 30 62.2363 30.2302 62.2363 30.4604V32.8394C62.3049 33.1463 62.4421 33.2998 62.6478 33.2998Z" stroke="url(#paint4_linear)" stroke-miterlimit="10"/>
<path d="M61.3652 76.1228V61.4667C63.0243 60.2767 64.6834 59.6504 66.2936 59.6504C67.9039 59.6504 69.563 60.2767 71.222 61.4667V76.1228H61.3652Z" stroke="url(#paint5_linear)" stroke-width="0.5" stroke-miterlimit="10"/>
<defs>
<linearGradient id="paint0_linear" x1="96.7412" y1="0.999999" x2="72.3468" y2="112.596" gradientUnits="userSpaceOnUse">
<stop stop-color="#FFDA94"/>
<stop offset="1" stop-color="#967128"/>
</linearGradient>
<linearGradient id="paint1_linear" x1="41.995" y1="34.5254" x2="17.4329" y2="80.8758" gradientUnits="userSpaceOnUse">
<stop stop-color="#FFDA94"/>
<stop offset="1" stop-color="#967128"/>
</linearGradient>
<linearGradient id="paint2_linear" x1="38.3726" y1="61.2979" x2="32.6639" y2="79.5786" gradientUnits="userSpaceOnUse">
<stop stop-color="#FFDA94"/>
<stop offset="1" stop-color="#967128"/>
</linearGradient>
<linearGradient id="paint3_linear" x1="74.9921" y1="33.3008" x2="47.7034" y2="78.0812" gradientUnits="userSpaceOnUse">
<stop stop-color="#FFDA94"/>
<stop offset="1" stop-color="#967128"/>
</linearGradient>
<linearGradient id="paint4_linear" x1="69.3688" y1="30" x2="68.9675" y2="33.9787" gradientUnits="userSpaceOnUse">
<stop stop-color="#FFDA94"/>
<stop offset="1" stop-color="#967128"/>
</linearGradient>
<linearGradient id="paint5_linear" x1="71.222" y1="59.6504" x2="64.7689" y2="77.3628" gradientUnits="userSpaceOnUse">
<stop stop-color="#FFDA94"/>
<stop offset="1" stop-color="#967128"/>
</linearGradient>
</defs>
</svg>
