<svg width="98" height="98" viewBox="0 0 98 98" fill="none" xmlns="http://www.w3.org/2000/svg">
<path d="M96.2339 57.0119L96.5627 56.2777C96.5627 53.5855 95.4668 50.8933 93.4941 49.3024L89.1104 45.2641C88.4528 44.6522 88.1241 43.6733 88.2337 42.6943C88.3432 41.3482 88.4528 39.7573 88.5624 38.2888C88.5624 37.4322 88.5624 36.5756 88.5624 35.719C88.5624 35.2295 88.5624 34.74 88.5624 34.2505C88.5624 33.8834 88.5624 33.5163 88.5624 33.1492C88.5624 32.7821 88.5624 32.5373 88.4528 32.1702C88.4528 31.436 88.3432 30.8241 88.2337 30.0899C88.2337 29.9675 88.2337 29.9675 88.2337 29.8451C88.2337 29.6004 88.1241 29.2333 88.1241 28.9885C88.1241 28.7438 88.0145 28.3766 88.0145 28.1319V28.0095C88.0145 27.6424 87.9049 27.2753 87.7953 27.0305C87.6857 26.4187 87.5761 25.8068 87.4665 25.3173C87.3569 24.8278 87.2473 24.4607 87.2473 23.9712C87.1377 23.6041 87.2473 23.237 87.5761 22.9922C87.9049 22.7475 88.0145 22.3804 88.0145 22.0132L87.5761 16.2617H77.0552L76.6168 22.0132C76.6168 22.3804 76.7264 22.7475 77.0552 22.9922C77.2744 23.237 77.4936 23.6041 77.384 23.9712C77.0552 25.3173 76.836 26.6634 76.6168 28.0095V28.1319C76.5072 28.7438 76.5072 29.2333 76.3976 29.8451C76.3976 29.9675 76.3976 29.9675 76.3976 30.0899C76.1784 31.9255 76.0688 33.7611 76.0688 35.719C76.0688 36.5756 76.0688 37.4322 76.0688 38.2888C76.0688 39.7573 76.1784 41.3482 76.3976 42.6943C76.5072 43.6733 76.1784 44.6522 75.5209 45.2641L71.0276 49.3024C69.1645 51.0156 67.959 53.5855 67.959 56.2777L68.2878 57.0119V89.0736L67.959 91.5211C67.959 94.5804 69.6029 96.6607 71.5755 96.6607H93.1653C95.138 96.6607 96.7819 94.5804 96.7819 91.5211L96.4531 89.0736V57.0119H96.2339Z" stroke="url(#paint0_linear)" stroke-miterlimit="10"/>
<path d="M77.056 16.262H82.0973H87.1385C87.3577 16.262 87.4673 16.1397 87.5769 16.0173C87.6865 15.8949 87.7961 15.7725 87.7961 15.5278V11.7342C87.7961 11.3671 87.4673 11 87.1385 11H82.0973H77.056C76.7272 11 76.3984 11.3671 76.3984 11.7342V15.5278C76.508 16.0173 76.7272 16.262 77.056 16.262Z" stroke="url(#paint1_linear)" stroke-miterlimit="10"/>
<path d="M72.918 83.5878V60.0638C76.0177 58.1537 79.1175 57.1484 82.1261 57.1484C85.1348 57.1484 88.2345 58.1537 91.3343 60.0638V83.5878H72.918Z" stroke="url(#paint2_linear)" stroke-miterlimit="10"/>
<path d="M56.1922 60.8585L53.1049 57.7678C51.6144 56.2224 50.7628 54.0826 50.7628 51.824V40.1743C50.7628 39.8176 50.5498 39.5799 50.2304 39.5799H50.124V33.6361C50.4434 33.6361 50.7628 33.2795 50.7628 32.9229V30.6643C50.7628 30.4265 50.6563 30.1888 50.4434 30.1888C48.9529 29.3566 47.4625 29 45.972 29C44.4816 29 42.9911 29.3566 41.5007 30.1888C41.2878 30.3076 41.1813 30.5454 41.1813 30.6643V32.804C41.1813 33.1606 41.5007 33.5173 41.8201 33.5173V39.461H41.7136C41.3942 39.461 41.1813 39.6988 41.1813 40.0554V51.5863C41.1813 53.8449 40.3296 55.9846 38.8392 57.53L35.7518 60.8585C33.0903 63.5927 31.7064 67.5155 32.0257 71.5573L34.1549 94.9757C34.2614 96.0456 35.0066 96.8777 35.9648 96.8777H55.9793C56.9374 96.8777 57.6827 96.0456 57.7891 94.9757L59.9183 71.5573C60.2377 67.5155 58.8537 63.5927 56.1922 60.8585Z" stroke="url(#paint3_linear)" stroke-miterlimit="10"/>
<path d="M45.97 92.7167C38.8372 87.6051 35.9628 79.2838 36.3886 68.3473C39.5824 67.1586 42.7762 66.5642 45.97 66.4453C49.1638 66.4453 52.3577 67.1586 55.5515 68.3473C56.0838 79.165 53.2093 87.6051 45.97 92.7167Z" stroke="url(#paint4_linear)" stroke-miterlimit="10"/>
<path d="M20.6702 33.4836C21.4984 34.6396 22.2231 35.9112 22.7407 37.1828C23.1548 38.57 23.4654 39.9571 23.776 41.3443L23.776 41.3444V93.9944C23.776 95.7284 22.4302 97 20.7737 97H12.388H4.00229C2.34585 97 1 95.6128 1 93.9944V41.3444C1 38.57 1.93175 35.7956 3.79524 33.5992L5.24462 31.8652C6.90106 29.9 7.8328 27.3568 7.8328 24.698V7.936C7.8328 7.8204 7.72928 7.7048 7.62575 7.7048C7.41869 7.7048 7.21164 7.5892 7.21164 7.358V5.8552C7.21164 5.624 7.31517 5.5084 7.52222 5.5084C7.62575 5.5084 7.72928 5.3928 7.72928 5.2772V4.5836V4.468C7.62575 4.3524 7.62575 4.3524 7.52222 4.3524C7.4187 4.3524 7.31517 4.3524 7.21164 4.2368L7.21163 4.23679C7.10811 4.1212 7.10811 4.1212 7.10811 4.0056V1.578C7.10811 1.2312 7.4187 1 7.72928 1H12.181H16.6326C16.7362 1 16.9432 1.1156 17.0467 1.2312C17.0467 1.3468 17.1503 1.4624 17.1503 1.578V3.77511C17.0467 3.89071 17.0467 4.2368 17.0467 4.2368C16.9432 4.3524 16.8397 4.3524 16.7362 4.3524C16.6326 4.3524 16.5291 4.468 16.5291 4.5836V5.2772L16.6326 5.3928C16.7362 5.5084 16.7362 5.5084 16.8397 5.5084C16.9432 5.5084 16.9432 5.624 17.0467 5.624C17.1503 5.7396 17.1503 5.7396 17.1503 5.8552V7.358V7.4736C17.0467 7.5892 16.9432 7.7048 16.7362 7.7048H16.6326C16.5291 7.7048 16.5291 7.8204 16.5291 7.8204V20.074V24.5824C16.5291 26.5476 17.1503 28.3972 18.082 30.1312C18.3926 30.7092 18.8067 31.2872 19.2208 31.7496L20.6702 33.4836Z" stroke="url(#paint5_linear)" stroke-miterlimit="10"/>
<path d="M19.1779 52.5371H5.03906V85.8845H19.1779V52.5371Z" stroke="url(#paint6_linear)" stroke-miterlimit="10"/>
<defs>
<linearGradient id="paint0_linear" x1="96.7819" y1="16.2617" x2="53.3082" y2="87.7514" gradientUnits="userSpaceOnUse">
<stop stop-color="#FFDA94"/>
<stop offset="1" stop-color="#967128"/>
</linearGradient>
<linearGradient id="paint1_linear" x1="87.7961" y1="11" x2="87.1575" y2="17.3449" gradientUnits="userSpaceOnUse">
<stop stop-color="#FFDA94"/>
<stop offset="1" stop-color="#967128"/>
</linearGradient>
<linearGradient id="paint2_linear" x1="91.3343" y1="57.1484" x2="82.1545" y2="86.4786" gradientUnits="userSpaceOnUse">
<stop stop-color="#FFDA94"/>
<stop offset="1" stop-color="#967128"/>
</linearGradient>
<linearGradient id="paint3_linear" x1="59.9636" y1="29" x2="25.798" y2="93.6083" gradientUnits="userSpaceOnUse">
<stop stop-color="#FFDA94"/>
<stop offset="1" stop-color="#967128"/>
</linearGradient>
<linearGradient id="paint4_linear" x1="55.6134" y1="66.4453" x2="46.8732" y2="95.8458" gradientUnits="userSpaceOnUse">
<stop stop-color="#FFDA94"/>
<stop offset="1" stop-color="#967128"/>
</linearGradient>
<linearGradient id="paint5_linear" x1="23.776" y1="0.999999" x2="-34.4798" y2="64.398" gradientUnits="userSpaceOnUse">
<stop stop-color="#FFDA94"/>
<stop offset="1" stop-color="#967128"/>
</linearGradient>
<linearGradient id="paint6_linear" x1="19.1779" y1="52.5371" x2="2.66021" y2="84.6613" gradientUnits="userSpaceOnUse">
<stop stop-color="#FFDA94"/>
<stop offset="1" stop-color="#967128"/>
</linearGradient>
</defs>
</svg>
